<?xml version="1.0" encoding="UTF-8" standalone="no"?>
<!-- Created with Inkscape (http://www.inkscape.org/) -->

<svg
   xmlns:dc="http://purl.org/dc/elements/1.1/"
   xmlns:cc="http://creativecommons.org/ns#"
   xmlns:rdf="http://www.w3.org/1999/02/22-rdf-syntax-ns#"
   xmlns:svg="http://www.w3.org/2000/svg"
   xmlns="http://www.w3.org/2000/svg"
   xmlns:sodipodi="http://sodipodi.sourceforge.net/DTD/sodipodi-0.dtd"
   xmlns:inkscape="http://www.inkscape.org/namespaces/inkscape"
   width="210mm"
   height="297mm"
   viewBox="0 0 210 297"
   version="1.1"
   id="svg8"
   inkscape:version="0.92.4 5da689c313, 2019-01-14"
   sodipodi:docname="KontaktLogo.svg">
  <defs
     id="defs2">
    <clipPath
       id="clipPath505"
       clipPathUnits="userSpaceOnUse">
      <path
         inkscape:connector-curvature="0"
         id="path503"
         d="m 12428.3,5257.18 h 2038.4 v 1439.48 h -2038.4 z" />
    </clipPath>
  </defs>
  <sodipodi:namedview
     id="base"
     pagecolor="#ffffff"
     bordercolor="#666666"
     borderopacity="1.0"
     inkscape:pageopacity="0.0"
     inkscape:pageshadow="2"
     inkscape:zoom="1.6319276"
     inkscape:cx="578.8078"
     inkscape:cy="766.01922"
     inkscape:document-units="mm"
     inkscape:current-layer="layer1"
     showgrid="false"
     inkscape:window-width="1362"
     inkscape:window-height="729"
     inkscape:window-x="0"
     inkscape:window-y="18"
     inkscape:window-maximized="0" />
  <metadata
     id="metadata5">
    <rdf:RDF>
      <cc:Work
         rdf:about="">
        <dc:format>image/svg+xml</dc:format>
        <dc:type
           rdf:resource="http://purl.org/dc/dcmitype/StillImage" />
        <dc:title></dc:title>
      </cc:Work>
    </rdf:RDF>
  </metadata>
  <g
     inkscape:label="Layer 1"
     inkscape:groupmode="layer"
     id="layer1">
    <path
       inkscape:connector-curvature="0"
       id="path555"
       style="fill:#231f20;fill-opacity:1;fill-rule:nonzero;stroke:none;stroke-width:0.03527778"
       d="m 112.13944,112.79119 -5.25639,-6.06849 4.75544,-4.86339 h -3.48544 l -3.67948,4.00897 v -8.105426 h -2.62819 v 15.028336 h 2.62819 v -3.57117 l 0.7232,-0.74472 3.61597,4.31589 z m 4.77661,-11.08499 c -3.33023,0 -5.1682,1.99355 -5.1682,5.63034 0,3.63608 1.83797,5.62963 5.1682,5.62963 3.33022,0 5.17172,-1.99355 5.17172,-5.62963 0,-3.63679 -1.8415,-5.63034 -5.17172,-5.63034 m 0,9.09109 c -1.55575,0 -2.54,-0.56939 -2.54,-3.46075 0,-2.89243 0.98425,-3.46146 2.54,-3.46146 1.55575,0 2.54352,0.56903 2.54352,3.46146 0,2.89136 -0.98777,3.46075 -2.54352,3.46075 m 11.37003,-9.11331 c -2.77989,0 -4.92831,1.16099 -5.0165,1.20509 v 9.90212 h 2.62819 v -8.58767 c 0.59267,-0.10972 1.29469,-0.1972 2.03906,-0.1972 2.3883,0 2.58233,1.02975 2.58233,1.9939 v 6.79097 h 2.60703 v -6.57225 c 0,-2.84798 -1.79564,-4.53496 -4.84011,-4.53496 m 12.55183,2.4317 v -2.25637 h -2.58233 v -3.242029 h -2.63173 v 3.242029 h -1.83797 v 2.25637 h 1.83797 v 5.23592 c 0,2.25637 1.31586,3.61457 3.48545,3.61457 0.635,0 1.20297,-0.10972 1.72861,-0.32844 v -2.16853 c -0.34925,0.15276 -0.74436,0.24025 -1.24883,0.24025 -0.96309,0 -1.3335,-0.24025 -1.3335,-1.20439 v -5.38938 z m 5.25992,-2.4317 c -1.31586,0 -2.43417,0.2413 -3.35139,0.61348 v 2.12513 c 0.80786,-0.32879 1.88383,-0.54751 3.19616,-0.54751 1.71098,0 2.32128,0.87595 2.32128,2.05917 -0.58914,-0.0879 -1.24883,-0.15382 -1.92616,-0.15382 -4.3815,0 -4.70959,2.6289 -4.70959,3.43959 0,1.81857 1.22767,3.74615 4.68842,3.74615 3.39372,0 4.60022,-1.90606 4.60022,-3.68054 v -2.95733 c 0,-3.00108 -1.71097,-4.64432 -4.81894,-4.64432 m 2.19075,7.29509 c 0,1.00753 -0.52917,1.66476 -1.99673,1.66476 -1.37936,0 -2.05669,-0.61313 -2.05669,-1.75225 0,-0.89817 0.6985,-1.42381 2.47297,-1.42381 0.59267,0 1.11831,0.0656 1.58045,0.13123 z m 14.56619,3.81212 -5.25639,-6.06849 4.75192,-4.86339 h -3.48192 l -3.67947,4.00897 v -8.105426 h -2.63172 v 15.028336 h 2.63172 v -3.57117 l 0.7232,-0.74472 3.61244,4.31589 z m 6.63928,-8.67551 v -2.25637 h -2.58586 v -3.242029 h -2.6282 v 3.242029 h -1.8415 v 2.25637 h 1.8415 v 5.23592 c 0,2.25637 1.31234,3.61457 3.48192,3.61457 0.635,0 1.2065,-0.10972 1.73214,-0.32844 v -2.16853 c -0.35278,0.15276 -0.74789,0.24025 -1.24883,0.24025 -0.96661,0 -1.33703,-0.24025 -1.33703,-1.20439 v -5.38938 h 2.58586" />
    <path
       inkscape:connector-curvature="0"
       id="path557"
       style="fill:#231f20;fill-opacity:1;fill-rule:nonzero;stroke:none;stroke-width:0.03527778"
       d="m 126.71269,80.414653 c -4.41678,0 -8.03628,3.618089 -8.03628,8.034867 0,4.416425 3.6195,8.017581 8.03628,8.017581 4.41677,0 8.01864,-3.601156 8.01864,-8.017581 0,-4.416778 -3.60187,-8.034867 -8.01864,-8.034867 m 3.14325,8.034867 -5.60564,-5.622573 h 1.91911 l 5.62328,5.622573 -5.60564,5.605286 h -1.95439 z m 13.72305,-8.034867 c -4.41677,0 -8.03275,3.618089 -8.03275,8.034867 0,4.416425 3.61598,8.017581 8.03275,8.017581 4.41678,0 8.01864,-3.601156 8.01864,-8.017581 0,-4.416778 -3.60186,-8.034867 -8.01864,-8.034867 m -3.09033,8.051447 5.62328,5.60564 h -1.93675 l -5.60564,-5.60564 5.588,-5.622572 h 1.95439 l -5.62328,5.622572" />
    <path
       inkscape:connector-curvature="0"
       id="path559"
       style="fill:#231f20;fill-opacity:1;fill-rule:nonzero;stroke:none;stroke-width:0.03527778"
       d="m 101.79952,115.39963 v 6.4837 h 2.032 c 2.02142,0 3.04094,-1.08867 3.04094,-3.24661 0,-2.14842 -1.01952,-3.23709 -3.04094,-3.23709 z m 1.98261,5.82259 h -1.28058 v -5.17101 h 1.28058 c 1.65453,0 2.39183,0.79692 2.39183,2.58551 0,1.78823 -0.7373,2.5855 -2.39183,2.5855 m 5.69736,-4.27707 c -0.60325,0 -1.09714,0.12629 -1.45697,0.25294 v 0.68015 c 0.18344,-0.0677 0.71967,-0.23318 1.41817,-0.23318 0.87488,0 1.41816,0.29139 1.41816,1.20544 0,0 -0.33866,-0.0483 -0.77611,-0.0483 -0.44803,0 -2.53647,-0.0102 -2.53647,1.59385 0,1.37054 1.397,1.56492 2.02847,1.56492 0.635,0 1.9932,-0.19438 1.9932,-1.53599 v -1.45803 c 0,-1.32186 -0.72673,-2.02177 -2.08845,-2.02177 m 1.38995,3.4798 c 0,0.73907 -0.69145,0.88476 -1.2947,0.88476 -0.59972,0 -1.32997,-0.14569 -1.32997,-0.91369 0,-0.89429 1.17475,-0.96238 1.76036,-0.96238 0.54328,0 0.86431,0.0586 0.86431,0.0586 z m 2.159,-2.0701 c 0,-0.61243 0.59972,-0.73907 1.09713,-0.73907 0.50448,0 0.90312,0.17497 1.1677,0.3309 v -0.70026 c -0.32103,-0.15522 -0.74083,-0.30127 -1.24531,-0.30127 -1.26294,0 -1.72155,0.72919 -1.72155,1.4097 0,1.70074 2.60703,0.9525 2.60703,2.25495 0,0.55422 -0.60325,0.67063 -1.10773,0.67063 -0.508,0 -1.01247,-0.1651 -1.43933,-0.42756 v 0.73871 c 0.34925,0.19438 0.8255,0.36936 1.46756,0.36936 1.10772,0 1.778,-0.50553 1.778,-1.35114 0,-1.90535 -2.6035,-1.30245 -2.6035,-2.25495 m 7.79286,0.0776 2.77989,-3.03283 h -0.94192 l -3.00214,3.34398 v -3.34398 h -0.70203 v 6.4837 h 0.70203 v -2.1777 l 0.70908,-0.77752 2.53648,2.95522 h 0.92427 z m 6.57225,-1.39982 v 2.84797 c 0,0.98178 -0.42686,1.4291 -1.32997,1.4291 -0.9137,0 -1.3335,-0.44732 -1.3335,-1.4291 v -2.84797 h -0.6985 v 2.80917 c 0,1.35113 0.7373,2.11913 2.032,2.11913 1.29116,0 2.02847,-0.768 2.02847,-2.11913 v -2.80917 z m 2.58586,-1.84644 h -0.6985 v 6.69713 h 0.6985 z m 2.27542,2.48814 h 1.25236 v -0.6417 h -1.25236 v -1.37055 h -0.70203 v 1.37055 h -0.84314 v 0.6417 h 0.84314 v 2.91606 c 0,1.24425 0.91369,1.37054 1.31233,1.37054 0.24342,0 0.45861,-0.0487 0.64206,-0.11642 v -0.6611 c -0.14464,0.0681 -0.32103,0.11677 -0.55386,0.11677 -0.51506,0 -0.6985,-0.18486 -0.6985,-0.67098 z m 5.38338,-0.6417 v 2.84797 c 0,0.98178 -0.42686,1.4291 -1.32997,1.4291 -0.91369,0 -1.3335,-0.44732 -1.3335,-1.4291 v -2.84797 h -0.6985 v 2.80917 c 0,1.35113 0.73731,2.11913 2.032,2.11913 1.29117,0 2.032,-0.768 2.032,-2.11913 v -2.80917 z m 4.13103,0.59337 v -0.67099 c -1.16416,0 -2.09902,0.35984 -2.35302,0.46673 v 4.46158 h 0.70202 v -4.00509 c 0.39864,-0.10654 0.98073,-0.23318 1.651,-0.25223 m 2.413,-0.68086 c -1.84855,0 -1.99319,1.17616 -1.99319,1.53564 v 5.20065 h 0.6985 v -1.90535 c 0.38805,0.11677 0.78669,0.18485 1.2065,0.18485 1.00894,0 2.21544,-0.41804 2.21544,-2.43981 0,-2.23555 -1.3335,-2.57598 -2.12725,-2.57598 m -0.0882,4.36456 c -0.41981,0 -0.8255,-0.078 -1.2065,-0.24271 v -2.61514 c 0,-0.57362 0.43744,-0.86501 1.29469,-0.86501 0.61031,0 1.42875,0.2039 1.42875,1.9244 0,1.26365 -0.44802,1.79846 -1.51694,1.79846 m 5.461,-3.6837 v -0.67099 c -1.16417,0 -2.09903,0.35984 -2.35303,0.46673 v 4.46158 h 0.70203 v -4.00509 c 0.39864,-0.10654 0.98072,-0.23318 1.651,-0.25223 m 2.39183,-0.68086 c -1.04069,0 -2.27541,0.43744 -2.27541,2.50789 0,2.07046 1.23472,2.5079 2.27541,2.5079 1.0407,0 2.28247,-0.43744 2.28247,-2.5079 0,-2.07045 -1.24177,-2.50789 -2.28247,-2.50789 m 0,4.37409 c -1.09714,0 -1.57339,-0.56339 -1.57339,-1.8662 0,-1.30245 0.47625,-1.86619 1.57339,-1.86619 1.10772,0 1.58397,0.56374 1.58397,1.86619 0,1.30281 -0.47625,1.8662 -1.58397,1.8662 m 3.25614,-5.15162 h 0.77611 v -0.76799 h -0.77611 z m 0.0388,0.86502 v 5.0934 c 0,0.63183 -0.14464,0.96238 -0.99131,0.98213 v 0.65088 c 1.13595,0 1.68981,-0.52493 1.68981,-1.59385 v -5.13256 z m 3.64419,-0.0875 c -2.20486,0 -2.12725,2.06092 -2.12725,2.57598 0,2.02177 1.20297,2.43981 2.21545,2.43981 0.69144,0 1.26294,-0.11642 1.73214,-0.34008 v -0.71931 c -0.40923,0.24271 -0.9525,0.35948 -1.66512,0.35948 -0.99836,0 -1.48519,-0.41769 -1.57338,-1.38994 h 3.53836 c 0,0 0.0176,-0.15558 0.0176,-0.34008 0,-0.1845 0.0705,-2.58586 -2.13784,-2.58586 m -1.41816,2.30364 c 0.067,-1.19522 0.46566,-1.64254 1.41816,-1.64254 1.34056,0 1.4217,1.40935 1.4217,1.64254 z m 6.32883,0.0102 2.0708,-2.22638 h -0.9525 l -2.18016,2.3816 v -4.22804 h -0.6985 v 6.69713 h 0.6985 v -1.47779 l 0.60325,-0.65087 1.85561,2.12866 h 0.93486 z m 3.78178,-1.58468 h 1.25236 v -0.6417 h -1.25236 v -1.37055 h -0.70203 v 1.37055 h -0.84667 v 0.6417 h 0.84667 v 2.91606 c 0,1.24425 0.91369,1.37054 1.31233,1.37054 0.24342,0 0.45861,-0.0487 0.64206,-0.11642 v -0.6611 c -0.14464,0.0681 -0.32103,0.11677 -0.55386,0.11677 -0.51506,0 -0.6985,-0.18486 -0.6985,-0.67098 v -2.95487" />
    <path
       d="M -258.91931,177.31549 H 341.0819"
       style="fill:none;stroke:#231f20;stroke-width:0.17638895;stroke-linecap:butt;stroke-linejoin:miter;stroke-miterlimit:10;stroke-dasharray:none;stroke-opacity:1"
       id="path563"
       inkscape:connector-curvature="0" />
  </g>
</svg>
