<?xml version="1.0" encoding="UTF-8" standalone="no"?>
<!-- Created with Inkscape (http://www.inkscape.org/) -->

<svg
   xmlns:dc="http://purl.org/dc/elements/1.1/"
   xmlns:cc="http://creativecommons.org/ns#"
   xmlns:rdf="http://www.w3.org/1999/02/22-rdf-syntax-ns#"
   xmlns:svg="http://www.w3.org/2000/svg"
   xmlns="http://www.w3.org/2000/svg"
   xmlns:sodipodi="http://sodipodi.sourceforge.net/DTD/sodipodi-0.dtd"
   xmlns:inkscape="http://www.inkscape.org/namespaces/inkscape"
   width="210mm"
   height="297mm"
   viewBox="0 0 210 297"
   version="1.1"
   id="svg8"
   inkscape:version="0.92.4 5da689c313, 2019-01-14"
   sodipodi:docname="Lampe_v1.svg">
  <defs
     id="defs2" />
  <sodipodi:namedview
     id="base"
     pagecolor="#ffffff"
     bordercolor="#666666"
     borderopacity="1.0"
     inkscape:pageopacity="0.0"
     inkscape:pageshadow="2"
     inkscape:zoom="0.35"
     inkscape:cx="-1998.8248"
     inkscape:cy="147.57612"
     inkscape:document-units="mm"
     inkscape:current-layer="layer1"
     showgrid="false"
     inkscape:snap-global="true"
     inkscape:snap-bbox="true"
     inkscape:window-width="1920"
     inkscape:window-height="1141"
     inkscape:window-x="0"
     inkscape:window-y="0"
     inkscape:window-maximized="1"
     inkscape:bbox-paths="true"
     inkscape:bbox-nodes="true"
     inkscape:snap-bbox-edge-midpoints="true"
     inkscape:snap-bbox-midpoints="true" />
  <metadata
     id="metadata5">
    <rdf:RDF>
      <cc:Work
         rdf:about="">
        <dc:format>image/svg+xml</dc:format>
        <dc:type
           rdf:resource="http://purl.org/dc/dcmitype/StillImage" />
        <dc:title></dc:title>
      </cc:Work>
    </rdf:RDF>
  </metadata>
  <g
     inkscape:label="Ebene 1"
     inkscape:groupmode="layer"
     id="layer1">
    <path
       style="fill:#ff0000;stroke-width:0.36360821"
       d="m -162.82405,21.368289 c -4.14589,0 -7.48378,3.337895 -7.48378,7.483782 V 143.88484 c 0,4.14589 3.33789,7.48378 7.48378,7.48378 H -2.7914473 c 4.1458842,0 7.4837808,-3.33789 7.4837808,-7.48378 V 28.852071 c 0,-4.145887 -3.3378966,-7.483782 -7.4837808,-7.483782 z m 2.51612,10.000424 H -5.3075729 v 56.999622 h 4.99969501 V 98.36824 H -5.3075729 v 43.00047 H -72.807845 v 4.98419 h -19.999811 v -4.98419 H -160.30793 V 98.36824 h -4.99969 v -9.999905 h 4.99969 z"
       id="rect3713-3"
       inkscape:connector-curvature="0" />
    <rect
       style="fill:#ff00ff;stroke-width:0.24022873"
       id="rect3715"
       width="37.041668"
       height="43"
       x="-505.48761"
       y="-278.28781" />
    <path
       style="fill:#d3d3d3;stroke:none;stroke-width:4.99399996;stroke-miterlimit:4;stroke-dasharray:none"
       d="m 389.12899,-301.22323 v -316.97029 l -200.43597,93.56293 v 129.8445 z"
       id="path4838"
       inkscape:connector-curvature="0" />
    <path
       style="fill:#d3d3d3;stroke:none;stroke-width:4.99399996;stroke-miterlimit:4;stroke-dasharray:none"
       d="M 13.902219,-524.63059 H 188.69302 l 125.95015,-180.55178 h -426.69113 z"
       id="path4811"
       inkscape:connector-curvature="0" />
    <path
       style="fill:#d3d3d3;stroke:none;stroke-width:4.99399996;stroke-miterlimit:4;stroke-dasharray:none"
       d="m -186.53375,-618.19346 v 316.97031 l 200.435969,-93.56294 v -129.8445 z"
       id="path4838-7"
       inkscape:connector-curvature="0" />
    <path
       style="fill:#d3d3d3;stroke:none;stroke-width:4.99399996;stroke-miterlimit:4;stroke-dasharray:none"
       d="M 188.69302,-394.78609 H 13.902229 l -125.950159,180.5518 H 314.6432 Z"
       id="path4811-5"
       inkscape:connector-curvature="0" />
    <path
       style="fill:#0000ff;stroke:none;stroke-width:5.50519657;stroke-miterlimit:4;stroke-dasharray:none"
       d="m -559.94593,80.364792 h 244.84999 l -33.425,119.999998 -178,0 z"
       id="rect4896"
       inkscape:connector-curvature="0"
       sodipodi:nodetypes="ccccc" />
    <path
       style="fill:#0000ff;stroke:none;stroke-width:4.25579023;stroke-miterlimit:4;stroke-dasharray:none"
       d="m -646.52094,175.03816 120,25.32663 v 133.00002 l -120,25.32661 z"
       id="rect4898"
       inkscape:connector-curvature="0"
       sodipodi:nodetypes="ccccc" />
    <path
       style="fill:#0000ff;stroke:none;stroke-width:5.50519705;stroke-miterlimit:4;stroke-dasharray:none"
       d="m -526.52094,333.36481 178,0 -23.23214,119.99998 h -131.53571 z"
       id="rect4896-3"
       inkscape:connector-curvature="0"
       sodipodi:nodetypes="ccccc" />
    <path
       style="fill:#0000ff;stroke:none;stroke-width:4.25579023;stroke-miterlimit:4;stroke-dasharray:none"
       d="m -348.52094,200.36479 120.00001,26.04749 v 80.84357 l -120.00001,26.10896 z"
       id="rect4898-5"
       inkscape:connector-curvature="0"
       sodipodi:nodetypes="ccccc" />
    <path
       style="fill:#de8787;stroke:none;stroke-width:4.99399996;stroke-miterlimit:4;stroke-dasharray:none"
       d="m -231.50484,226.42133 h 74.83929 v 80.88692 h -74.83929 z"
       id="rect4932"
       inkscape:connector-curvature="0" />
    <path
       style="fill:#de8787;stroke:none;stroke-width:9.03448582;stroke-miterlimit:4;stroke-dasharray:none"
       d="m -559.98522,-0.52213413 h 244.92857 V 80.364792 h -244.92857 z"
       id="rect4932-6"
       inkscape:connector-curvature="0" />
    <path
       style="fill:#de8787;stroke:none;stroke-width:6.62072515;stroke-miterlimit:4;stroke-dasharray:none"
       d="m -503.28879,453.36479 h 131.53571 v 80.88693 h -131.53571 z"
       id="rect4932-6-2"
       inkscape:connector-curvature="0" />
    <path
       style="fill:#de8787;stroke:none;stroke-width:7.82317543;stroke-miterlimit:4;stroke-dasharray:none"
       d="m -646.52094,175.03816 v 183.65326 h -80.88692 V 175.03816 Z"
       id="rect4932-6-2-9"
       inkscape:connector-curvature="0"
       sodipodi:nodetypes="ccccc" />
    <path
       style="fill:#ff0000;stroke-width:0.36360821"
       d="m -757.34964,-202.67279 c -4.14589,0 -7.48378,3.3379 -7.48378,7.48379 v 115.032766 c 0,4.14589 3.33789,7.48378 7.48378,7.48378 h 160.0326 c 4.14589,0 7.48379,-3.33789 7.48379,-7.48378 V -195.189 c 0,-4.14589 -3.3379,-7.48379 -7.48379,-7.48379 z m 2.51612,10.00043 h 155.00036 v 56.99962 h 4.99969 v 9.99991 h -4.99969 v 43.000466 h -67.50028 v 4.98419 h -19.9998 v -4.98419 h -67.50028 v -43.000466 h -4.99969 v -9.99991 h 4.99969 z"
       id="rect3713-3-1"
       inkscape:connector-curvature="0" />
    <rect
       style="fill:#ffff00;stroke:none;stroke-width:5.25999498;stroke-miterlimit:4;stroke-dasharray:none"
       id="rect5012"
       width="178"
       height="133"
       x="-526.52094"
       y="200.36479" />
    <path
       style="fill:#ff0000;stroke-width:0.36360821"
       d="m -515.02111,211.86479 h 155.00036 v 56.99962 h 4.99969 v 9.99991 h -4.99969 v 43.00046 h -67.50028 v 4.98419 h -19.9998 v -4.98419 h -67.50028 v -43.00046 h -4.99969 v -9.99991 h 4.99969 z"
       id="rect3713-3-1-2"
       inkscape:connector-curvature="0"
       sodipodi:nodetypes="ccccccccccccccccc" />
    <path
       style="fill:#ffff00;stroke:none;stroke-width:19.88029671;stroke-miterlimit:4;stroke-dasharray:none"
       d="M -3100.0098 1660.9707 L -3100.0098 2163.6484 L -2427.2539 2163.6484 L -2427.2539 1660.9707 L -3100.0098 1660.9707 z M -3081.1113 1674.1992 A 5.6692913 5.6692913 0 0 1 -3075.4434 1679.8691 A 5.6692913 5.6692913 0 0 1 -3081.1113 1685.5371 A 5.6692913 5.6692913 0 0 1 -3086.7812 1679.8691 A 5.6692913 5.6692913 0 0 1 -3081.1113 1674.1992 z M -2446.1523 1674.1992 A 5.6692913 5.6692913 0 0 1 -2440.4824 1679.8691 A 5.6692913 5.6692913 0 0 1 -2446.1523 1685.5371 A 5.6692913 5.6692913 0 0 1 -2451.8203 1679.8691 A 5.6692913 5.6692913 0 0 1 -2446.1523 1674.1992 z M -3042.5859 1685.5371 L -2484.6777 1685.5371 C -2466.4749 1685.5371 -2451.8203 1700.1917 -2451.8203 1718.3945 L -2451.8203 2106.2246 C -2451.8203 2124.4275 -2466.4749 2139.082 -2484.6777 2139.082 L -3042.5859 2139.082 C -3060.7888 2139.082 -3075.4434 2124.4275 -3075.4434 2106.2246 L -3075.4434 1718.3945 C -3075.4434 1700.1917 -3060.7888 1685.5371 -3042.5859 1685.5371 z M -3081.1113 2139.082 A 5.6692913 5.6692913 0 0 1 -3075.4434 2144.75 A 5.6692913 5.6692913 0 0 1 -3081.1113 2150.4199 A 5.6692913 5.6692913 0 0 1 -3086.7812 2144.75 A 5.6692913 5.6692913 0 0 1 -3081.1113 2139.082 z M -2446.1523 2139.082 A 5.6692913 5.6692913 0 0 1 -2440.4824 2144.75 A 5.6692913 5.6692913 0 0 1 -2446.1523 2150.4199 A 5.6692913 5.6692913 0 0 1 -2451.8203 2144.75 A 5.6692913 5.6692913 0 0 1 -2446.1523 2139.082 z "
       transform="scale(0.26458333)"
       id="rect5012-0" />
    <rect
       style="fill:#e3dbdb;fill-opacity:1;stroke:none;stroke-width:4.97007084;stroke-miterlimit:4;stroke-dasharray:none"
       id="rect5113"
       width="5"
       height="5"
       x="-353.52094"
       y="200.36479" />
    <circle
       style="fill:#000114;fill-opacity:1;stroke:none;stroke-width:2.80629897;stroke-miterlimit:4;stroke-dasharray:none"
       id="path5109-8"
       cx="-521.52094"
       cy="205.36479"
       r="1.5" />
    <circle
       style="fill:#000114;fill-opacity:1;stroke:none;stroke-width:2.80629897;stroke-miterlimit:4;stroke-dasharray:none"
       id="path5109-7"
       cx="-521.52094"
       cy="328.36481"
       r="1.5" />
    <circle
       style="fill:#000114;fill-opacity:1;stroke:none;stroke-width:2.80629897;stroke-miterlimit:4;stroke-dasharray:none"
       id="path5109-9"
       cx="-353.52094"
       cy="328.36481"
       r="1.5" />
    <circle
       style="fill:#000114;fill-opacity:1;stroke:none;stroke-width:2.80629897;stroke-miterlimit:4;stroke-dasharray:none"
       id="path5109-20"
       cx="-353.52094"
       cy="205.36479"
       r="1.5" />
    <rect
       style="fill:#ffff00;stroke:none;stroke-width:5.25999498;stroke-miterlimit:4;stroke-dasharray:none"
       id="rect5012-0-2"
       width="178"
       height="133"
       x="-869.14288"
       y="-536.03571" />
    <rect
       style="fill:#00ffff;stroke:none;stroke-width:5.38168716;stroke-miterlimit:4;stroke-dasharray:none"
       id="rect5014-6-3"
       width="165"
       height="120"
       x="-862.64288"
       y="-529.53571"
       ry="8.6934528" />
    <circle
       style="fill:#000114;fill-opacity:1;stroke:none;stroke-width:2.80629897;stroke-miterlimit:4;stroke-dasharray:none"
       id="path5109-75"
       cx="-696.14288"
       cy="-531.03571"
       r="1.5" />
    <circle
       style="fill:#000114;fill-opacity:1;stroke:none;stroke-width:2.80629897;stroke-miterlimit:4;stroke-dasharray:none"
       id="path5109-2-9"
       cx="-864.14288"
       cy="-531.03571"
       r="1.5" />
    <circle
       style="fill:#000114;fill-opacity:1;stroke:none;stroke-width:2.80629897;stroke-miterlimit:4;stroke-dasharray:none"
       id="path5109-6-2"
       cx="-864.14288"
       cy="-408.03571"
       r="1.5" />
    <circle
       style="fill:#000114;fill-opacity:1;stroke:none;stroke-width:2.80629897;stroke-miterlimit:4;stroke-dasharray:none"
       id="path5109-1-2"
       cx="-696.14288"
       cy="-408.03571"
       r="1.5" />
    <path
       style="fill:#ffff00;stroke:none;stroke-width:5.25999498;stroke-miterlimit:4;stroke-dasharray:none"
       d="m -820.43467,584.4908 v 133.00014 h 178 V 584.4908 Z m 4.9997,3.50004 a 1.4999999,1.4999999 0 0 1 1.50016,1.50016 1.4999999,1.4999999 0 0 1 -1.50016,1.49966 1.4999999,1.4999999 0 0 1 -1.49966,-1.49966 1.4999999,1.4999999 0 0 1 1.49966,-1.50016 z m 168.00009,0 a 1.4999999,1.4999999 0 0 1 1.50017,1.50016 1.4999999,1.4999999 0 0 1 -1.50017,1.49966 1.4999999,1.4999999 0 0 1 -1.49965,-1.49966 1.4999999,1.4999999 0 0 1 1.49965,-1.50016 z m -147.47988,17.99992 h 126.95968 c 3.61214,0 6.52052,2.9079 6.52052,6.52002 v 76.95964 c 0,3.61212 -2.90838,6.52053 -6.52052,6.52053 h -126.95968 c -3.61215,0 -6.52002,-2.90841 -6.52002,-6.52053 v -76.95964 c 0,-3.61212 2.90787,-6.52002 6.52002,-6.52002 z m -20.52021,104.99979 a 1.4999999,1.4999999 0 0 1 1.50016,1.50018 1.4999999,1.4999999 0 0 1 -1.50016,1.50017 1.4999999,1.4999999 0 0 1 -1.49966,-1.50017 1.4999999,1.4999999 0 0 1 1.49966,-1.50018 z m 168.00009,0 a 1.4999999,1.4999999 0 0 1 1.50017,1.50018 1.4999999,1.4999999 0 0 1 -1.50017,1.50017 1.4999999,1.4999999 0 0 1 -1.49965,-1.50017 1.4999999,1.4999999 0 0 1 1.49965,-1.50018 z"
       id="rect5012-0-2-8"
       inkscape:connector-curvature="0" />
  </g>
</svg>
