<?xml version="1.0" encoding="UTF-8" standalone="no"?>
<!-- Created with Inkscape (http://www.inkscape.org/) -->

<svg
   xmlns:dc="http://purl.org/dc/elements/1.1/"
   xmlns:cc="http://creativecommons.org/ns#"
   xmlns:rdf="http://www.w3.org/1999/02/22-rdf-syntax-ns#"
   xmlns:svg="http://www.w3.org/2000/svg"
   xmlns="http://www.w3.org/2000/svg"
   xmlns:sodipodi="http://sodipodi.sourceforge.net/DTD/sodipodi-0.dtd"
   xmlns:inkscape="http://www.inkscape.org/namespaces/inkscape"
   width="210mm"
   height="297mm"
   viewBox="0 0 210 297"
   id="svg2"
   version="1.1"
   inkscape:version="0.91 r13725"
   sodipodi:docname="Lampe_v1_burn.svg">
  <defs
     id="defs4" />
  <sodipodi:namedview
     id="base"
     pagecolor="#ffffff"
     bordercolor="#666666"
     borderopacity="1.0"
     inkscape:pageopacity="0.0"
     inkscape:pageshadow="2"
     inkscape:zoom="1.6202689"
     inkscape:cx="-1081.3803"
     inkscape:cy="-76.44768"
     inkscape:document-units="mm"
     inkscape:current-layer="layer1"
     showgrid="false"
     inkscape:window-width="1920"
     inkscape:window-height="1028"
     inkscape:window-x="-8"
     inkscape:window-y="-8"
     inkscape:window-maximized="1"
     inkscape:snap-bbox="true"
     inkscape:bbox-paths="true"
     inkscape:snap-bbox-edge-midpoints="true"
     inkscape:bbox-nodes="true"
     inkscape:snap-object-midpoints="true" />
  <metadata
     id="metadata7">
    <rdf:RDF>
      <cc:Work
         rdf:about="">
        <dc:format>image/svg+xml</dc:format>
        <dc:type
           rdf:resource="http://purl.org/dc/dcmitype/StillImage" />
        <dc:title></dc:title>
      </cc:Work>
    </rdf:RDF>
  </metadata>
  <g
     inkscape:label="Layer 1"
     inkscape:groupmode="layer"
     id="layer1">
    <path
       style="fill:#0000ff;stroke:none;stroke-width:4.25579023;stroke-miterlimit:4;stroke-dasharray:none"
       d="m -432.87141,266.35575 120,25.32663 0,133.00002 -120,25.32661 z"
       id="rect4898"
       inkscape:connector-curvature="0"
       sodipodi:nodetypes="ccccc" />
    <path
       style="fill:#0000ff;stroke:none;stroke-width:5.50519705;stroke-miterlimit:4;stroke-dasharray:none"
       d="m -312.87141,424.6824 178,0 -23.23214,119.99998 -131.53571,0 z"
       id="rect4896-3"
       inkscape:connector-curvature="0"
       sodipodi:nodetypes="ccccc" />
    <rect
       style="fill:#ffff00;stroke:none;stroke-width:5.25999498;stroke-miterlimit:4;stroke-dasharray:none"
       id="rect5012"
       width="178"
       height="133"
       x="-312.8714"
       y="291.68237" />
    <path
       style="fill:#ff0000;stroke-width:0.36360821"
       d="m -301.37158,303.18238 155.00036,0 0,56.99962 4.99969,0 0,9.99991 -4.99969,0 0,43.00046 -67.50028,0 0,4.98419 -19.9998,0 0,-4.98419 -67.50028,0 0,-43.00046 -4.99969,0 0,-9.99991 4.99969,0 z"
       id="rect3713-3-1-2"
       inkscape:connector-curvature="0"
       sodipodi:nodetypes="ccccccccccccccccc" />
    <path
       inkscape:connector-curvature="0"
       style="fill:#ffff00;stroke:none;stroke-width:19.88029671;stroke-miterlimit:4;stroke-dasharray:none"
       d="m -606.56139,530.78275 0,133.00014 178,0 0,-133.00014 -178,0 z m 5.00023,3.50004 a 1.5,1.5 0 0 1 1.49963,1.50016 1.5,1.5 0 0 1 -1.49963,1.49966 1.5,1.5 0 0 1 -1.50016,-1.49966 1.5,1.5 0 0 1 1.50016,-1.50016 z m 167.99957,0 a 1.5,1.5 0 0 1 1.50016,1.50016 1.5,1.5 0 0 1 -1.50016,1.49966 1.5,1.5 0 0 1 -1.49966,-1.49966 1.5,1.5 0 0 1 1.49966,-1.50016 z m -157.80639,2.99982 147.61321,0 c 4.81616,0 8.69352,3.87736 8.69352,8.69352 l 0,102.61338 c 0,4.81618 -3.87736,8.69352 -8.69352,8.69352 l -147.61321,0 c -4.81618,0 -8.69355,-3.87734 -8.69355,-8.69352 l 0,-102.61338 c 0,-4.81616 3.87737,-8.69352 8.69355,-8.69352 z m -10.19318,120.00042 a 1.5,1.5 0 0 1 1.49963,1.49965 1.5,1.5 0 0 1 -1.49963,1.50017 1.5,1.5 0 0 1 -1.50016,-1.50017 1.5,1.5 0 0 1 1.50016,-1.49965 z m 167.99957,0 a 1.5,1.5 0 0 1 1.50016,1.49965 1.5,1.5 0 0 1 -1.50016,1.50017 1.5,1.5 0 0 1 -1.49966,-1.50017 1.5,1.5 0 0 1 1.49966,-1.49965 z"
       id="rect5012-0" />
    <rect
       style="fill:#e3dbdb;fill-opacity:1;stroke:none;stroke-width:4.97007084;stroke-miterlimit:4;stroke-dasharray:none"
       id="rect5113"
       width="5"
       height="11"
       x="274.08997"
       y="301.8714"
       transform="matrix(0,1,-1,0,0,0)" />
    <circle
       style="fill:#000114;fill-opacity:1;stroke:none;stroke-width:2.80629897;stroke-miterlimit:4;stroke-dasharray:none"
       id="path5109-8"
       cx="-307.8714"
       cy="296.68237"
       r="1.5" />
    <circle
       style="fill:#000114;fill-opacity:1;stroke:none;stroke-width:2.80629897;stroke-miterlimit:4;stroke-dasharray:none"
       id="path5109-7"
       cx="-307.8714"
       cy="419.6824"
       r="1.5" />
    <circle
       style="fill:#000114;fill-opacity:1;stroke:none;stroke-width:2.80629897;stroke-miterlimit:4;stroke-dasharray:none"
       id="path5109-9"
       cx="-139.8714"
       cy="419.6824"
       r="1.5" />
    <circle
       style="fill:#000114;fill-opacity:1;stroke:none;stroke-width:2.80629897;stroke-miterlimit:4;stroke-dasharray:none"
       id="path5109-20"
       cx="-139.8714"
       cy="296.68237"
       r="1.5" />
    <path
       style="fill:#ffff00;stroke:none;stroke-width:5.25999498;stroke-miterlimit:4;stroke-dasharray:none"
       d="m -606.78514,675.80839 0,133.00014 178,0 0,-133.00014 z m 4.9997,3.50004 a 1.4999999,1.4999999 0 0 1 1.50016,1.50016 1.4999999,1.4999999 0 0 1 -1.50016,1.49966 1.4999999,1.4999999 0 0 1 -1.49966,-1.49966 1.4999999,1.4999999 0 0 1 1.49966,-1.50016 z m 168.00009,0 a 1.4999999,1.4999999 0 0 1 1.50017,1.50016 1.4999999,1.4999999 0 0 1 -1.50017,1.49966 1.4999999,1.4999999 0 0 1 -1.49965,-1.49966 1.4999999,1.4999999 0 0 1 1.49965,-1.50016 z m -147.47988,17.99992 126.95968,0 c 3.61214,0 6.52052,2.9079 6.52052,6.52002 l 0,76.95964 c 0,3.61212 -2.90838,6.52053 -6.52052,6.52053 l -126.95968,0 c -3.61215,0 -6.52002,-2.90841 -6.52002,-6.52053 l 0,-76.95964 c 0,-3.61212 2.90787,-6.52002 6.52002,-6.52002 z m -20.52021,104.99979 a 1.4999999,1.4999999 0 0 1 1.50016,1.50018 1.4999999,1.4999999 0 0 1 -1.50016,1.50017 1.4999999,1.4999999 0 0 1 -1.49966,-1.50017 1.4999999,1.4999999 0 0 1 1.49966,-1.50018 z m 168.00009,0 a 1.4999999,1.4999999 0 0 1 1.50017,1.50018 1.4999999,1.4999999 0 0 1 -1.50017,1.50017 1.4999999,1.4999999 0 0 1 -1.49965,-1.50017 1.4999999,1.4999999 0 0 1 1.49965,-1.50018 z"
       id="rect5012-0-2-8"
       inkscape:connector-curvature="0" />
    <circle
       style="opacity:1;fill:#000000;fill-opacity:1;stroke:none;stroke-width:0.1;stroke-linejoin:miter;stroke-miterlimit:4;stroke-dasharray:none;stroke-dashoffset:0;stroke-opacity:1"
       id="path4232"
       cx="-143.87141"
       cy="434.6824"
       r="2.3499999" />
    <circle
       style="opacity:1;fill:#000000;fill-opacity:1;stroke:none;stroke-width:0.1;stroke-linejoin:miter;stroke-miterlimit:4;stroke-dasharray:none;stroke-dashoffset:0;stroke-opacity:1"
       id="path4232-4"
       cx="-303.99457"
       cy="434.6824"
       r="2.3500001" />
    <circle
       style="opacity:1;fill:#000000;fill-opacity:1;stroke:none;stroke-width:0.1;stroke-linejoin:miter;stroke-miterlimit:4;stroke-dasharray:none;stroke-dashoffset:0;stroke-opacity:1"
       id="path4232-2"
       cx="-323.8714"
       cy="419.68237"
       r="2.3500001" />
    <circle
       style="opacity:1;fill:#000000;fill-opacity:1;stroke:none;stroke-width:0.1;stroke-linejoin:miter;stroke-miterlimit:4;stroke-dasharray:none;stroke-dashoffset:0;stroke-opacity:1"
       id="path4232-8"
       cx="-323.8714"
       cy="296.68237"
       r="2.3500001" />
  </g>
</svg>
